<svg xmlns="http://www.w3.org/2000/svg" width="16.419" height="16.423" viewBox="0 0 16.419 16.423">
  <g id="coffee-bean-for-a-coffee-break" transform="translate(-7.087 -1)">
    <path id="Path_9" data-name="Path 9" d="M.749,13.882C-.828,11.1.245,6.739,3.508,3.476c3.7-3.7,8.827-4.587,11.443-1.972a.09.09,0,0,0,.01.011c-.523,1.523-2.19,4.763-7.187,6.515C3.2,9.635,1.431,12.188.749,13.882ZM15.686,2.456a10.643,10.643,0,0,1-2.275,3.322,13.82,13.82,0,0,1-5.3,3.214C3.229,10.7,1.865,13.507,1.484,14.865c.018.018.033.037.051.055,2.615,2.615,7.738,1.732,11.443-1.973C16.274,9.65,17.334,5.232,15.686,2.456Z" transform="translate(7.054 1)" fill="#f2d0a7"/>
  </g>
</svg>
