<?xml version="1.0" encoding="UTF-8"?><svg id="Layer_1" xmlns="http://www.w3.org/2000/svg" viewBox="0 0 547.87 179.86"><defs><style>.cls-1,.cls-2{fill:#917158;}.cls-3{fill:#f3d0a7;font-size:105.16px;isolation:isolate;}.cls-3,.cls-2{font-family:Merriweather-Regular, Merriweather;}.cls-2{font-size:60.15px;}</style></defs><path class="cls-1" d="M193.79,21.1c-.25-.57-25.12,28.76-58.21,25.94-12.52-1.07-22.9-6.45-30.6-11.84-6.48-4.15-16.02-8.86-27.92-10.09-27.33-2.81-47.62,14.77-54.16,21,.04-.02,.39-.25,1.02-.65,10.69-6.79,30.83-19.51,53.26-16.28,5.74,.83,14.74,3.15,25.21,10.55,7.81,5.22,19.32,11.01,33.43,11.48,34.05,1.13,58.22-29.54,57.97-30.1h0Z"/><path class="cls-1" d="M351.85,21.1c.25-.57,25.12,28.76,58.21,25.94,12.52-1.07,22.9-6.45,30.6-11.84,6.48-4.15,16.02-8.86,27.92-10.09,27.33-2.81,47.62,14.77,54.16,21-.04-.02-.39-.25-1.02-.65-10.69-6.79-30.83-19.51-53.26-16.28-5.74,.83-14.74,3.15-25.21,10.55-7.81,5.22-19.32,11.01-33.43,11.48-34.05,1.13-58.22-29.54-57.97-30.1h0Z"/><text class="cls-2" transform="translate(217.94 52.42)"><tspan x="0" y="0">The</tspan></text><text class="cls-3" transform="translate(0 151.26)"><tspan x="0" y="0">Daily</tspan></text><text class="cls-3" transform="translate(280.77 151.26)"><tspan x="0" y="0">Brew</tspan></text></svg>